<?xml version="1.0" encoding="UTF-8" standalone="no"?>
<svg
   version="1.1"
   width="341.79083"
   height="121.41274"
   viewBox="0 0 341.79085 121.41275"
   id="svg13"
   xmlns="http://www.w3.org/2000/svg"
   xmlns:svg="http://www.w3.org/2000/svg">
  <defs
     id="defs13" />
  <g
     id="g13"
     transform="translate(-126.8113,-278.53225)">
    <g
       id="g14">
      <path
         transform="matrix(1,0,0,-1,0,841.8898)"
         d="m 158.2078,525.3993 c 9.6837,0.3838 19.2867,-6.2889 19.4494,-13.5264 -0.1364,-15.2883 0.4762,-31.4875 -4.0765,-36.659 -2.1824,-3.7171 -0.7756,-5.5341 4.2026,-5.4632 4.9782,0.0711 7.6745,0.57 7.6745,0.57 0,0 3.0354,1.3655 1.0505,3.7693 -4.8724,5.9008 -5.5457,27.5195 -5.5457,35.8925 0,2.9503 0.4669,4.4799 0.4669,4.4799 0,0 2.4871,3.6632 4.4362,6.0094 2.4512,2.9503 8.9014,1.5574 8.9014,1.5574 1.8071,-2.0721 3.0274,-3.7828 5.4575,-4.3982 2.6751,-0.8422 5.1185,2.0437 1.8102,4.043 -1.5672,1.2841 -3.5997,1.6027 -5.8668,1.4295 l -6.4497,0.0732 c 5.5159,2.3527 12.5586,4.907 18.6786,4.1788 l 5.1367,-2.9503 c 0.1009,-3.0285 2.3887,-5.2381 5.6035,-7.1019 3.0852,-1.8284 5.8646,-0.0836 3.3854,3.1688 -2.0738,2.8009 -4.8441,4.3736 -8.3194,4.6973 l -5.8062,3.2783 15.3354,5.4031 5.014,0.146 c 2.457,-2.2346 5.3444,-2.2694 8.8344,-1.499 3.6295,1.4395 2.5915,3.2732 0.4102,4.527 -3.9592,0.9558 -7.0741,0.1559 -9.6313,-1.8029 l -4.7276,-0.1094 3.7355,3.7701 c 2.7368,0.7033 4.5643,1.5962 6.2121,4.3393 1.5506,4.6295 -2.9766,4.6887 -5.1616,2.4349 -1.7583,-1.9814 -2.0381,-3.8469 -1.9264,-5.6817 l -5.6616,-5.4635 -1.6345,-0.8742 4.2024,9.6701 c 2.2861,2.0982 3.4347,4.693 3.3862,7.8114 0.2699,4.4532 -4.4532,5.5108 -6.4213,1.2019 -0.7523,-3.9597 -0.0938,-6.6858 1.4888,-8.6046 l -4.0193,-10.2121 -12.4021,-4.5252 c -5.0114,-0.7931 -9.9618,-2.2147 -14.8952,-3.8109 4.7321,4.1499 11.296,9.5083 16.8071,11.0353 3.3217,-0.1386 5.0831,0.6743 6.308,1.4207 5.3257,4.496 3.0605,7.0495 -0.934,5.9003 -2.6839,-0.5346 -4.9669,-2.1359 -6.4052,-6.0228 l -3.0509,-1.5037 6.4363,11.0891 c 2.3244,1.6214 3.769,3.4832 5.0046,7.145 1.4964,9.3988 -10.7986,4.011 -6.5962,-6.556 -2.1955,-5.1346 -5.4224,-10.1809 -8.5513,-13.7126 l 1.6469,15.2312 c 2.2728,1.8289 3.4529,4.8166 3.39,9.1221 -0.6035,7.3812 -7.2462,4.7815 -7.8679,0.0675 -0.5689,-3.204 0.6662,-6.2101 2.7434,-9.1233 l -0.8362,-11.5793 c -0.1307,-2.4672 -0.7504,-4.1507 -1.7904,-5.5204 l -8.8707,-7.7341 0.0569,2.2161 c 1.7595,1.3355 3.0368,3.636 3.7063,7.1567 -0.2157,4.3342 -4.9325,4.7956 -5.839,0.197 -0.6248,-2.52 -0.3235,-4.9981 0.6868,-7.4449 l -0.364,-3.187 c -2.3275,-2.1558 -4.3268,-4.6185 -5.9536,-7.4302 l 0.0853,20.1949 3.5337,4.4444 c 3.1731,1.1157 6.0888,3.0714 8.6389,6.2283 2.6816,5.1491 -0.4428,7.3984 -5.4868,3.4963 -2.383,-2.6195 -3.8038,-5.5398 -4.3194,-8.741 l -2.685,-3.715 -0.1284,12.0971 c 1.5421,2.3023 1.7195,5.4674 1.7045,9.4277 -0.7265,4.8853 -4.7557,5.3561 -6.065,1.0171 -0.7747,-4.2763 0.9334,-7.8092 3.1172,-10.4822 l 0.2041,-10.2022 -6.2747,6.3686 c -0.8224,2.9727 -2.2938,5.7138 -4.4785,7.4758 -4.0629,3.6785 -7.9985,1.0973 -5.3572,-2.6997 2.3162,-3.2908 4.6103,-5.0377 8.9705,-5.5874 l 6.1475,-6.923 -0.1168,-18.5749 c -1.216,3.1175 -2.8111,5.3688 -4.0852,8.3854 l -0.0457,6.3715 c 1.0194,0.6168 0.7866,3.3372 0.3371,4.8557 -0.658,3.5388 -3.0572,3.0612 -3.24,0.2458 0.0609,-2.1949 -0.11,-4.049 1.6639,-4.786 l 0.0805,-5.5772 c -4.3563,5.9329 -9.1327,11.7006 -14.7348,16.9053 -0.5252,2.9134 -0.6726,4.2006 -2.5993,6.7864 -5.8187,5.9995 -10.0469,2.916 -6.3122,-2.3383 1.9516,-2.3961 4.3792,-4.0187 8.0246,-5.131 8.2635,-8.7871 15.7997,-16.7652 20.853,-27.739 -3.0092,2.9163 -6.156,5.233 -9.3988,7.1303 -3.5708,2.3723 -5.2699,2.0421 -8.1091,9.282 0.2061,1.8496 -0.3552,3.5635 -0.9374,5.2217 -1.3394,3.2939 -4.6335,2.4151 -4.4359,0.2736 0.1695,-2.291 1.1154,-4.7115 3.9398,-5.9826 l 2.4809,-4.9988 c -4.7477,2.8037 -10.0479,6.5868 -13.8033,11.029 -0.3801,2.4795 -1.8694,5.0114 -3.884,6.6163 -9.6058,6.8942 -11.1898,-6.0465 2.685,-7.7578 l 5.9539,-5.4629 -11.4767,-0.3229 c -3.1668,1.1446 -5.8958,1.4493 -9.3741,0.409 -6.4574,-2.1778 -4.8909,-7.3993 1.4541,-6.1809 3.4095,1.0148 6.09,2.0545 8.6077,4.5737 l 11.8103,0.155 8.3472,-4.8622 -3.4526,-0.2458 c -11.7185,3.7276 -18.5976,-7.7525 -4.5375,-4.9272 2.1844,1.059 2.9325,1.5715 4.6446,3.7117"
         fill="#00a650"
         fill-rule="evenodd"
         id="path1" />
      <path
         transform="matrix(1,0,0,-1,0,841.8898)"
         d="m 150.2782,493.7984 c 3.3466,-0.9524 5.6987,-2.1237 7.048,-3.492 1.9438,-1.9485 2.9115,-4.4663 2.9115,-7.5643 0,-3.2728 -1.0653,-5.9768 -3.1958,-8.1113 -2.6183,-2.5943 -6.4264,-3.886 -11.4151,-3.886 h -17.9215 v 1.1823 c 1.6331,0 2.7338,0.186 3.3197,0.5692 0.5771,0.3722 0.9853,0.8538 1.216,1.4559 0.2399,0.6021 0.3552,2.0687 0.3552,4.4223 v 28.2203 c 0,2.3536 -0.1153,3.8313 -0.3552,4.4445 -0.2307,0.6128 -0.648,1.0947 -1.2339,1.4558 -0.5856,0.3722 -1.6863,0.5474 -3.3018,0.5474 v 1.1931 h 16.9007 c 4.0391,0 6.9061,-0.4487 8.5839,-1.3354 1.6864,-0.8867 3.009,-2.2113 3.9765,-3.9736 0.9765,-1.7626 1.4556,-3.6453 1.4556,-5.6268 0,-2.1016 -0.6123,-3.9625 -1.8463,-5.6046 -1.2248,-1.6308 -3.3908,-2.9336 -6.4975,-3.8968 z m -9.4624,0.8756 c 2.4588,0 4.2696,0.3393 5.4414,1.0182 1.1716,0.6894 2.0682,1.6529 2.6983,2.8897 0.6214,1.237 0.9321,2.8244 0.9321,4.7508 0,1.9157 -0.3107,3.492 -0.923,4.7291 -0.6126,1.2259 -1.4913,2.1566 -2.6362,2.8023 -1.1452,0.6457 -2.9829,0.9524 -5.5126,0.9303 z m 0,-2.5067 v -13.9459 l -0.0266,-1.6092 c 0,-1.1494 0.231,-2.0251 0.7101,-2.6164 0.4793,-0.5799 1.1806,-0.8756 2.1214,-0.8756 1.385,0 2.6629,0.3722 3.8347,1.1384 1.1716,0.7554 2.0685,1.861 2.6895,3.3058 0.6305,1.434 0.9409,3.0433 0.9409,4.8166 0,2.0361 -0.3816,3.8642 -1.1449,5.4734 -0.7634,1.609 -1.8108,2.7366 -3.151,3.3823 -1.3318,0.646 -3.329,0.9525 -5.9741,0.9306"
         fill="#00aeef"
         id="path2" />
      <path
         transform="matrix(1,0,0,-1,0,841.8898)"
         d="m 214.6859,514.9035 c 5.6188,0.2627 10.1814,-1.7623 13.6964,-6.0534 3.5062,-4.3022 5.2637,-9.6769 5.2637,-16.1354 0,-5.5171 -1.3046,-10.3666 -3.9235,-14.559 -3.4707,-5.5607 -8.3704,-8.3412 -14.6996,-8.3412 -6.3377,0 -11.2465,2.6489 -14.7172,7.9582 -2.734,4.1925 -4.11,9.1622 -4.11,14.9091 0,6.4585 1.7845,11.8443 5.3439,16.1462 3.5683,4.3132 7.9444,6.3382 13.1463,6.0755 z m 0.3194,-2.0469 c -3.2309,0 -5.6809,-2.0362 -7.3675,-6.0974 -1.3669,-3.3278 -2.0506,-8.1223 -2.0506,-14.362 0,-7.4216 1.0565,-12.9061 3.1691,-16.4528 1.4735,-2.4849 3.5417,-3.7216 6.1957,-3.7216 1.7844,0 3.2755,0.5363 4.474,1.5981 1.5176,1.3683 2.7073,3.5575 3.5594,6.5679 0.8521,2.9994 1.2782,6.9183 1.2782,11.7457 0,5.758 -0.4349,10.0598 -1.3048,12.9061 -0.87,2.857 -1.9707,4.8713 -3.32,6.0534 -1.3402,1.1713 -2.8848,1.7626 -4.6335,1.7626"
         fill="#00aeef"
         id="path3" />
      <path
         transform="matrix(1,0,0,-1,0,841.8898)"
         d="m 287.25,483.1254 h -12.4535 l -1.4828,-4.2364 c -0.4878,-1.4119 -0.7277,-2.5724 -0.7277,-3.492 0,-1.226 0.3994,-2.1234 1.1983,-2.6929 0.4617,-0.3501 1.6157,-0.6018 3.4531,-0.777 v -1.1823 h -11.7261 v 1.1823 c 1.2606,0.2407 2.308,0.8867 3.1159,1.9486 0.8164,1.0508 1.8286,3.24 3.0177,6.5568 l 12.6137,34.7009 h 0.4971 l 12.7114,-35.6641 c 1.2158,-3.3826 2.2099,-5.5063 2.9915,-6.382 0.5944,-0.6678 1.4289,-1.0508 2.5029,-1.1602 v -1.1823 h -17.0606 v 1.1823 h 0.7011 c 1.3671,0 2.3346,0.2407 2.8851,0.7115 0.3818,0.3393 0.5768,0.832 0.5768,1.4777 0,0.3833 -0.0533,0.7773 -0.1599,1.1823 -0.0351,0.1971 -0.2928,0.9961 -0.7809,2.4084 z m -0.8876,2.3754 -5.2461,14.9749 -5.4144,-14.9749 z"
         fill="#00aeef"
         id="path4" />
      <path
         transform="matrix(1,0,0,-1,0,841.8898)"
         d="m 349.6235,515.2209 v -15.3252 h -0.9675 c -1.1627,4.1925 -2.9026,7.3777 -5.2282,9.5562 -2.3167,2.1784 -4.8555,3.2731 -7.6161,3.2731 -2.6365,0 -4.8288,-0.9195 -6.5775,-2.7476 -1.7487,-1.828 -2.9914,-4.3676 -3.7194,-7.6408 -0.7279,-3.2729 -1.0916,-6.6336 -1.0916,-10.0709 0,-4.1706 0.3994,-7.8267 1.1982,-10.9684 0.79,-3.1416 2.0772,-5.4513 3.8614,-6.9293 1.7753,-1.4777 3.888,-2.211 6.3289,-2.211 0.8521,0 1.722,0.1094 2.6096,0.3393 0.8968,0.2188 1.811,0.5474 2.7518,0.9743 v 9.0417 c 0,1.7078 -0.0975,2.8244 -0.2928,3.3168 -0.1865,0.5037 -0.5859,0.9635 -1.1806,1.3685 -0.5947,0.4048 -1.3227,0.6129 -2.1748,0.6129 h -0.9053 v 1.1823 h 17.1317 v -1.1823 c -1.296,-0.1094 -2.2014,-0.3283 -2.7164,-0.6568 -0.506,-0.3393 -0.9054,-0.8867 -1.1807,-1.6529 -0.1596,-0.4051 -0.2307,-1.4011 -0.2307,-2.9885 v -9.0417 c -2.2547,-1.2371 -4.5981,-2.1784 -7.039,-2.8023 -2.4321,-0.635 -4.9618,-0.9525 -7.5804,-0.9525 -3.3466,0 -6.1248,0.5692 -8.3353,1.6858 -2.2102,1.1276 -4.1629,2.5942 -5.8496,4.4223 -1.6866,1.8281 -3.0092,3.886 -3.9679,6.1739 -1.207,2.9556 -1.8196,6.2614 -1.8196,9.9178 0,6.535 1.8641,12.0631 5.5922,16.5731 3.7282,4.5099 8.415,6.7648 14.0692,6.7648 1.749,0 3.3288,-0.1641 4.7313,-0.5034 0.7634,-0.1752 1.9973,-0.6678 3.7106,-1.4669 1.7042,-0.7991 2.7161,-1.2042 3.0265,-1.2042 0.4885,0 0.9324,0.2191 1.3493,0.6568 0.4173,0.438 0.7991,1.2699 1.1452,2.4851 z"
         fill="#00aeef"
         id="path5" />
      <path
         transform="matrix(1,0,0,-1,0,841.8898)"
         d="m 384.0531,471.9271 v -1.1823 h -18.4365 v 1.1823 h 1.1718 c 1.0208,0 1.8462,0.2299 2.4676,0.6786 0.4529,0.2957 0.7991,0.8102 1.0386,1.5435 0.1953,0.5034 0.2931,1.8499 0.2931,4.0394 v 28.6032 c 0,2.2224 -0.0978,3.6125 -0.2931,4.1707 -0.1865,0.5584 -0.5681,1.04 -1.154,1.4561 -0.5769,0.4159 -1.3669,0.6239 -2.3522,0.6239 h -1.1718 v 1.1931 h 18.4365 v -1.1931 h -1.1716 c -1.021,0 -1.8464,-0.2191 -2.4675,-0.6678 -0.453,-0.3064 -0.8079,-0.8102 -1.0653,-1.5435 -0.1865,-0.5145 -0.284,-1.8609 -0.284,-4.0394 v -28.6032 c 0,-2.2224 0.0975,-3.6125 0.2928,-4.1706 0.2044,-0.5585 0.5947,-1.0401 1.1719,-1.4562 0.5859,-0.4269 1.3668,-0.6347 2.3521,-0.6347 z"
         fill="#00aeef"
         id="path6" />
      <path
         transform="matrix(1,0,0,-1,0,841.8898)"
         d="m 426.2119,486.0153 -1.3226,-15.2705 H 393.573 v 1.1823 h 1.1715 c 1.0208,0 1.8462,0.2299 2.4679,0.6786 0.4527,0.2957 0.7988,0.8102 1.0471,1.5435 0.1865,0.5034 0.2843,1.8499 0.2843,4.0394 v 28.6032 c 0,2.2224 -0.0978,3.6125 -0.2843,4.1707 -0.195,0.5584 -0.5769,1.04 -1.1625,1.4561 -0.5771,0.4159 -1.3671,0.6239 -2.3525,0.6239 h -1.1715 v 1.1931 h 18.8093 v -1.1931 h -1.5356 c -1.0298,0 -1.8464,-0.2191 -2.4766,-0.6678 -0.4439,-0.3064 -0.7988,-0.8102 -1.0652,-1.5435 -0.1866,-0.5145 -0.2841,-1.8609 -0.2841,-4.0394 V 479.086 c 0,-2.2221 0.1066,-3.6451 0.3107,-4.2471 0.2132,-0.6132 0.6126,-1.0729 1.2248,-1.3683 0.4352,-0.197 1.4826,-0.2846 3.1425,-0.2846 h 2.9381 c 1.8729,0 3.4354,0.4048 4.6868,1.2149 1.2428,0.8102 2.3259,2.0908 3.2313,3.8531 0.9141,1.7516 1.775,4.3351 2.5917,7.7613 z"
         fill="#00aeef"
         id="path7" />
      <path
         transform="matrix(1,0,0,-1,0,841.8898)"
         d="m 449.9357,511.7289 v -17.7006 h 0.7012 c 2.2369,0 3.8526,0.8646 4.8643,2.5943 1.0032,1.7294 1.6421,4.291 1.9261,7.6626 h 0.9854 v -22.769 h -0.9854 c -0.2128,2.4848 -0.6477,4.5102 -1.3135,6.0973 -0.6747,1.5874 -1.4468,2.649 -2.3347,3.1963 -0.8787,0.5366 -2.1656,0.8102 -3.8434,0.8102 v -12.2494 c 0,-2.3972 0.0799,-3.8531 0.2486,-4.3894 0.1595,-0.5363 0.4702,-0.9743 0.9232,-1.3136 0.4436,-0.3504 1.1716,-0.5145 2.1835,-0.5145 h 2.1039 c 3.293,0 5.9295,0.9414 7.9177,2.8242 1.9883,1.872 3.4087,4.7398 4.2786,8.5929 h 0.9584 l -1.58,-13.8254 h -30.4818 v 1.1823 h 1.1716 c 1.021,0 1.8465,0.2299 2.4675,0.6786 0.453,0.2957 0.7991,0.8102 1.0386,1.5435 0.1954,0.5034 0.2931,1.8499 0.2931,4.0394 v 28.6032 c 0,1.9704 -0.0445,3.1746 -0.1332,3.6236 -0.1686,0.7443 -0.4972,1.3243 -0.9587,1.7294 -0.6658,0.6021 -1.5621,0.8977 -2.7073,0.8977 h -1.1716 v 1.1931 h 29.5143 v -12.8622 h -0.985 c -0.5063,3.1417 -1.2073,5.3966 -2.1217,6.7649 -0.9054,1.3683 -2.1923,2.3754 -3.8611,3.0104 -0.9677,0.394 -2.7873,0.5802 -5.4592,0.5802 z"
         fill="#00aeef"
         id="path8" />
      <path
         transform="matrix(1,0,0,-1,0,841.8898)"
         d="m 131.6571,442.3635 v 14.6114 h -4.8458 v 2.8851 h 13.9053 v -2.8851 h -4.8455 v -14.6114 z m 12.5246,0 V 459.86 h 4.1839 v -6.8635 h 5.7677 v 6.8635 h 4.1836 v -17.4965 h -4.1836 v 7.9302 h -5.7677 v -7.9302 z m 19.2342,0 V 459.86 h 11.615 v -2.9083 h -7.4311 v -4.0445 h 6.9149 v -2.7726 h -6.9149 v -4.8163 h 7.6065 v -2.9548 z m 20.2059,10.1015 h 2.4205 c 1.2226,0 2.0696,0.1902 2.5453,0.5664 0.4762,0.3798 0.7117,1.0584 0.7117,2.0358 0,0.8685 -0.2607,1.4774 -0.7769,1.8264 -0.5208,0.3489 -1.463,0.5235 -2.831,0.5235 h -2.0696 z M 179.553,442.3635 V 459.86 h 7.5464 c 2.2802,0 3.9237,-0.3566 4.9257,-1.074 1.0024,-0.7135 1.5035,-1.8848 1.5035,-3.5056 0,-1.1322 -0.2707,-2.0282 -0.807,-2.6833 -0.5411,-0.6554 -1.3328,-1.0395 -2.3802,-1.1557 1.9992,-0.4073 3.0418,-1.7141 3.1266,-3.9206 0,-0.0969 0,-0.1706 0,-0.2248 l 0.1204,-2.319 c 0.04,-0.659 0.1455,-1.1866 0.3206,-1.586 0.1755,-0.3954 0.4513,-0.7407 0.8221,-1.0275 h -4.9907 c -0.1205,0.2948 -0.2055,0.6437 -0.2656,1.0391 -0.0604,0.3994 -0.0952,0.9618 -0.1154,1.6869 l -0.0601,1.8304 v 0.4654 c 0,1.016 -0.2806,1.7138 -0.837,2.09 -0.5559,0.3801 -1.6937,0.5701 -3.4025,0.5701 h -1.438 v -7.6819 z m 22.9924,7.0225 h 3.5827 l -1.804,7.3369 z m -6.048,-7.0225 5.0961,17.4965 h 5.6523 l 5.1361,-17.4965 h -4.5352 l -1.1171,4.3974 h -4.8456 l -1.0876,-4.3974 z m 23.4178,9.8379 h 1.7589 c 1.3127,0 2.23,0.1978 2.7612,0.5972 0.5259,0.3955 0.7915,1.0781 0.7915,2.0399 0,0.9694 -0.2407,1.6401 -0.7265,2.0162 -0.4859,0.3762 -1.4083,0.5624 -2.7661,0.5624 h -1.819 z m -4.0686,-9.8379 V 459.86 h 7.3106 c 2.23,0 3.8384,-0.3877 4.8158,-1.1593 0.9768,-0.7716 1.468,-2.0359 1.468,-3.7965 0,-1.7254 -0.5213,-3.0092 -1.5633,-3.8545 -1.0426,-0.8453 -2.6359,-1.268 -4.7806,-1.268 h -3.0665 v -7.4182 z m 17.6358,0 V 459.86 h 11.615 v -2.9083 h -7.4311 v -4.0445 h 6.9149 v -2.7726 h -6.9149 v -4.8163 h 7.6065 v -2.9548 z m 16.1371,17.4965 h 4.2142 v -11.7924 c 0,-1.3456 0.2106,-2.2606 0.6361,-2.7414 0.4261,-0.481 1.1829,-0.7214 2.27,-0.7214 1.0777,0 1.8241,0.2404 2.2399,0.7251 0.4162,0.4847 0.6217,1.4154 0.6217,2.7842 V 459.86 h 4.1536 v -12.0753 c 0,-1.1749 -0.085,-2.0321 -0.2554,-2.575 -0.1701,-0.5388 -0.4609,-1.0159 -0.8617,-1.423 -0.6067,-0.6168 -1.408,-1.0743 -2.4055,-1.3807 -0.997,-0.3062 -2.1847,-0.4612 -3.5527,-0.4612 -2.5855,0 -4.4042,0.4343 -5.4669,1.3028 -1.0621,0.8648 -1.5933,2.3771 -1.5933,4.5371 z m 22.4209,-17.4965 v 14.6114 h -4.8456 v 2.8851 h 13.9051 v -2.8851 h -4.8453 v -14.6114 z m 12.5246,0 V 459.86 h 4.2142 v -17.4965 z m 18.2917,6.2393 h 4.094 c 0,-0.0774 0.005,-0.1862 0.0151,-0.3334 0.01,-0.1513 0.015,-0.2639 0.015,-0.3492 0,-2.0202 -0.5514,-3.5249 -1.6535,-4.5059 -1.0973,-0.9811 -2.7859,-1.4695 -5.0561,-1.4695 -1.0772,0 -1.9993,0.1086 -2.7757,0.3217 -0.7719,0.2172 -1.438,0.5545 -1.9945,1.0083 -0.7616,0.6049 -1.303,1.4386 -1.6134,2.4973 -0.3158,1.0625 -0.4712,2.9084 -0.4712,5.5452 0,1.8031 0.0953,3.234 0.2807,4.3004 0.1854,1.0627 0.4708,1.8536 0.8617,2.3771 0.6114,0.8028 1.3629,1.3845 2.2652,1.745 0.8966,0.3606 2.0494,0.5392 3.4472,0.5392 2.2901,0 3.9537,-0.4615 4.9958,-1.3844 1.0425,-0.927 1.5684,-2.412 1.5786,-4.4555 h -4.0788 v 0.4186 c 0,0.9502 -0.2004,1.6557 -0.5964,2.1212 -0.396,0.4654 -0.997,0.6979 -1.8088,0.6979 -1.0125,0 -1.6988,-0.3217 -2.0645,-0.9655 -0.3659,-0.6437 -0.551,-2.4236 -0.551,-5.3359 0,-3.1527 0.18,-5.0681 0.536,-5.7467 0.3558,-0.6826 1.0423,-1.0239 2.0495,-1.0239 0.9371,0 1.5933,0.2676 1.9692,0.7988 0.3708,0.5352 0.5559,1.5202 0.5559,2.9588 z m 8.8664,-0.093 h 4.2143 v -1.1245 c 0,-1.0743 0.1755,-1.8071 0.5213,-2.1948 0.3456,-0.3918 0.9468,-0.5857 1.7989,-0.5857 0.8918,0 1.5684,0.1746 2.0341,0.5236 0.466,0.345 0.6968,0.8609 0.6968,1.5432 0,0.5235 -0.1605,0.9694 -0.4862,1.3456 -0.3209,0.3724 -1.0221,0.8572 -2.0993,1.4465 l -2.1549,1.1826 c -1.859,1.0006 -3.0413,1.8227 -3.5476,2.4741 -0.5062,0.6517 -0.7568,1.4697 -0.7568,2.4548 0,1.4695 0.5612,2.6212 1.6886,3.4551 1.1273,0.8337 2.6762,1.2487 4.655,1.2487 2.0946,0 3.6981,-0.4422 4.8158,-1.3303 1.1172,-0.8841 1.6736,-2.156 1.6736,-3.8157 0,-0.1667 0,-0.2945 -0.005,-0.3838 -0.005,-0.093 -0.015,-0.1707 -0.025,-0.2404 h -3.9937 v 0.4652 c 0,0.9462 -0.2007,1.6248 -0.6015,2.0321 -0.4005,0.4071 -1.0621,0.6126 -1.9794,0.6126 -0.6761,0 -1.2073,-0.1551 -1.5934,-0.4615 -0.3855,-0.3064 -0.5811,-0.7291 -0.5811,-1.2759 0,-0.7327 0.8668,-1.5471 2.5957,-2.4389 l 0.0451,-0.0233 2.3201,-1.2177 c 1.6535,-0.8493 2.7757,-1.6481 3.3622,-2.4004 0.5862,-0.756 0.8821,-1.7138 0.8821,-2.8811 0,-1.59 -0.5864,-2.8154 -1.764,-3.68 -1.1727,-0.8648 -2.8513,-1.2951 -5.0357,-1.2951 -2.27,0 -3.9637,0.4535 -5.0712,1.3609 -1.1123,0.9113 -1.6687,2.2958 -1.6687,4.161 0,0.1939 0.0201,0.5196 0.06,0.9734 z m 37.2481,3.6916 h 1.7589 c 1.3128,0 2.2301,0.1978 2.761,0.5972 0.5261,0.3955 0.7917,1.0781 0.7917,2.0399 0,0.9694 -0.2407,1.6401 -0.7268,2.0162 -0.4856,0.3762 -1.408,0.5624 -2.7658,0.5624 h -1.819 z m -4.0688,-9.8379 V 459.86 h 7.3108 c 2.23,0 3.8384,-0.3877 4.8155,-1.1593 0.9771,-0.7716 1.4681,-2.0359 1.4681,-3.7965 0,-1.7254 -0.521,-3.0092 -1.5633,-3.8545 -1.0423,-0.8453 -2.6357,-1.268 -4.7804,-1.268 h -3.0665 v -7.4182 z m 21.1836,0 -5.076,17.4965 h 4.5045 l 3.3622,-13.964 3.0419,13.964 h 4.4444 l -4.7401,-17.4965 z m 17.3599,0 v 14.6114 h -4.8455 v 2.8851 h 13.905 v -2.8851 h -4.8452 v -14.6114 z m 9.438,0 v 3.1371 h 3.7882 v -3.1371 z m 23.8589,0 V 459.86 h 4.2143 v -14.5185 h 7.6014 v -2.978 z m 16.6833,0 v 14.6114 h -4.8455 v 2.8851 h 13.905 v -2.8851 h -4.8452 v -14.6114 z m 16.6487,2.5786 h 1.8641 c 0.9519,0 1.6135,0.0545 1.9993,0.1591 0.3807,0.1046 0.6814,0.2868 0.9068,0.5468 0.3909,0.4538 0.6715,1.078 0.837,1.8691 0.165,0.7909 0.2506,2.0591 0.2506,3.8002 0,1.6945 -0.1003,2.9316 -0.2956,3.7034 -0.1956,0.7716 -0.5264,1.3573 -0.9975,1.7487 -0.2455,0.1979 -0.561,0.3373 -0.9468,0.415 -0.3861,0.0814 -0.9924,0.1202 -1.8139,0.1202 h -1.804 z m -4.1241,-2.5786 V 459.86 h 6.7646 c 1.3833,0 2.4806,-0.089 3.2976,-0.2712 0.8163,-0.1823 1.493,-0.4771 2.0191,-0.8881 0.7968,-0.5973 1.3527,-1.3533 1.6835,-2.2646 0.3257,-0.9153 0.4912,-2.3307 0.4912,-4.258 0,-2.4817 -0.1103,-4.2383 -0.3359,-5.2659 -0.2254,-1.0239 -0.6111,-1.8964 -1.1475,-2.6175 -0.521,-0.7174 -1.2424,-1.2217 -2.1645,-1.5046 -0.9269,-0.2832 -2.5308,-0.4266 -4.8104,-0.4266 z m 18.8632,0 v 3.1371 h 3.7882 v -3.1371 z"
         fill="#00aeef"
         id="path9" />
    </g>
  </g>
</svg>
