<?xml version="1.0" encoding="UTF-8"?>
<!DOCTYPE svg PUBLIC "-//W3C//DTD SVG 1.1//EN" "http://www.w3.org/Graphics/SVG/1.1/DTD/svg11.dtd">
<!-- Creator: CorelDRAW 2018 (64-Bit Evaluation Version) -->
<svg xmlns="http://www.w3.org/2000/svg" xml:space="preserve" width="1802px" height="713px" version="1.1" style="shape-rendering:geometricPrecision; text-rendering:geometricPrecision; image-rendering:optimizeQuality; fill-rule:evenodd; clip-rule:evenodd"
viewBox="0 0 1804.98 714.17"
 xmlns:xlink="http://www.w3.org/1999/xlink">
 <defs>
  <style type="text/css">
   <![CDATA[
    .str0 {stroke:#2B2A29;stroke-width:5.96;stroke-miterlimit:22.9256}
    .fil2 {fill:none}
    .fil3 {fill:#2B2A29}
    .fil1 {fill:#A4AF2A}
    .fil0 {fill:#679DB7}
   ]]>
  </style>
 </defs>
 <g id="Layer_x0020_1">
  <metadata id="CorelCorpID_0Corel-Layer"/>
  <g id="_2605515732736">
   <g>
    <g>
     <path class="fil0" d="M1249.88 94.49l-49.86 0 0 321.74 49.86 0 0 -144.72c0,-20.37 6.33,-37.22 18.28,-50.57 12.63,-12.65 28.09,-19.67 47.77,-19.67 19.67,0 35.13,7.02 47.76,21.08 11.95,12.63 18.26,29.5 18.97,49.16l0 144.72 47.77 0 0 -147.53c-0.7,-30.2 -11.25,-56.89 -33.01,-79.38 -21.78,-21.77 -47.06,-33.01 -77.98,-33.01 -14.75,0 -28.8,2.81 -40.74,7.74 -10.54,4.91 -20.38,11.93 -28.82,21.77l0 -91.33z"/>
     <path class="fil0" d="M1603.7 159.82c-25.3,0 -48.47,5.64 -68.84,18.27 -20.38,11.94 -37.22,29.5 -49.18,52.68 -9.13,17.57 -14.05,36.53 -14.05,56.9 0,37.23 13.34,68.15 39.34,92.73 26,25.29 57.6,37.23 94.82,37.23 12.65,0 28.11,-2.82 47.78,-9.13l0 -47.06c-16.15,7.02 -31.61,10.53 -46.36,10.53 -23.88,0 -44.26,-7.72 -60.42,-23.89 -17.56,-15.44 -25.28,-35.82 -25.28,-59.71 0,-23.87 7.72,-44.25 25.28,-60.4 16.87,-16.16 37.95,-24.59 61.81,-24.59l51.3 0 0 212.85 46.35 0 0 -256.41 -102.55 0z"/>
     <path class="fil0" d="M798.6 185.82l0 -26 -49.18 0 0 256.41 49.18 0 0 -144.72c0,-20.37 6.31,-37.22 18.96,-50.57 11.94,-12.64 28.1,-19.68 47.78,-19.68 19.66,0.72 35.1,7.04 47.76,21.09 11.95,12.63 18.26,29.5 18.26,49.16l0 144.72 47.79 0 0 -147.53c0,-30.2 -11.25,-56.89 -32.33,-79.38 -21.77,-21.78 -47.77,-33 -78.66,-33l-2.82 0c-13.36,0.7 -26.01,2.81 -37.24,7.72 -10.54,4.92 -20.37,11.95 -29.5,21.78z"/>
     <path class="fil0" d="M1066.09 93.79l-47.09 0 0 241.64c0,17.57 4.92,33.73 15.46,47.77 10.54,14.75 23.89,23.89 40.05,28.81 8.42,2.11 17.55,3.53 27.38,4.93l28.81 0c15.45,-0.72 25.29,-0.72 29.51,-0.72l0 -44.26 -18.97 0 -14.75 0c-24.6,0 -41.44,-4.9 -50.58,-16.13 -2.11,-4.94 -4.2,-10.56 -6.32,-17.58 -2.83,-6.32 -3.5,-11.94 -3.5,-14.75l0 -118.03 85.69 0 0 -45.66 -85.69 0 0 -66.02z"/>
     <path class="fil0" d="M657.26 408.5l0 -47.07c-16.17,7.03 -31.62,10.54 -46.36,10.54 -23.9,0 -43.56,-7.72 -60.42,-23.89 -16.86,-15.44 -25.29,-35.82 -25.29,-59.71 0,-23.87 8.43,-44.25 25.29,-60.41 17.56,-16.16 37.94,-24.57 61.81,-24.57l51.29 0 0 212.84 46.36 0 0 -256.42 -102.56 0c-25.28,0 -48.47,5.65 -68.84,18.28 -20.38,11.94 -36.53,29.5 -48.47,52.69 -9.84,17.56 -14.05,36.53 -14.05,56.89 0,37.23 12.64,68.15 39.34,92.74 25.29,25.27 56.9,37.22 94.13,37.22 12.64,0 28.8,-2.82 47.77,-9.13z"/>
     <path class="fil0" d="M207.23 237.81l36.53 -24.6c-25.99,-37.94 -62.52,-56.89 -109.59,-56.89 -37.93,0 -70.25,12.64 -95.54,38.63 -25.29,24.59 -38.63,56.19 -38.63,93.42 0,39.35 14.05,70.96 41.44,95.55 25.3,23.88 58.3,35.82 96.94,35.82 47.77,0 84.3,-23.87 108.89,-72.36l-32.32 -28.79c-8.42,18.26 -18.97,31.61 -33.01,41.44 -14.76,9.13 -30.92,14.05 -49.18,14.05 -23.18,0 -43.55,-8.43 -60.41,-24.59 -16.85,-16.85 -26,-37.23 -26,-61.12 0,-23.17 9.15,-43.55 26,-61.11 16.86,-16.85 37.23,-26 60.41,-26 26.7,0 51.29,12.65 74.47,36.55z"/>
     <polygon class="fil0" points="336.48,94.48 286.6,94.48 286.6,416.23 336.48,416.23 "/>
     <polygon class="fil0" points="430.6,156.33 381.42,156.33 381.42,416.23 430.6,416.23 "/>
     <path class="fil0" d="M453.53 35.15l0 0.58 0 -1.17 0 0.59zm15.81 -19.91l0 0 -6.43 1.75c-2.34,2.35 -4.11,3.51 -6.44,4.11l-9.96 3.51c-8.22,0.58 -15.23,1.17 -21.08,1.75 -4.71,0.59 -9.97,2.93 -15.25,5.85 -5.25,1.77 -9.95,4.69 -15.23,9.39 -3.51,1.75 -6.43,5.85 -9.37,11.11l-5.85 10.55c0,1.18 -0.59,7.03 -2.35,16.99 0.59,4.1 1.76,12.3 3.52,24.6l1.17 -3.51 1.76 -14.65 4.1 -8.79 9.95 -17.56 6.45 -3.52 4.68 -5.27c2.34,-1.17 5.29,-1.76 9.39,-2.93l29.28 -10.55 0 2.93 -4.68 5.86c-2.94,1.76 -7.03,3.52 -11.14,6.44 -4.09,1.75 -8.21,5.28 -13.46,9.96l-4.1 3.52c-2.95,0.58 -4.71,2.35 -5.87,5.86 -3.5,1.17 -7.6,6.44 -11.71,14.64 -2.35,6.44 -3.52,12.88 -3.52,19.92l-1.18 7.61c4.7,1.76 8.81,2.92 12.91,2.92l7.6 -1.16c4.1,-2.34 8.79,-4.69 13.48,-7.03 4.09,-1.75 8.2,-4.69 11.71,-8.2l5.86 -3.52c4.1,-2.92 7.03,-7.02 9.95,-11.13 1.18,-1.16 2.35,-2.93 4.69,-5.85 1.17,-1.76 2.93,-5.28 5.28,-8.8 3.51,-5.85 5.25,-11.7 6.44,-16.99 1.16,-5.85 1.75,-12.29 2.93,-18.15l2.93 -28.69 -6.46 7.03z"/>
     <path class="fil0" d="M462.32 20.51l7.03 -5.27 6.45 -7.03 -3.52 27.53 -5.85 24.6 -8.2 17.56 -4.7 7.03 -12.3 13.48 -9.94 7.62 -9.97 4.67 -9.37 2.95 -7.62 1.75 -5.26 0 -4.7 -1.17 0 -7.03 2.93 -16.4 3.51 -8.2 7.63 -9.96 3.51 -3.52 7.03 -5.86 25.19 -16.4c8.2,-4.1 12.29,-7.62 12.29,-9.96l-2.93 0 0 -1.75 -1.16 -1.18 -42.77 15.82 -3.51 1.76 -7.02 5.86 -2.35 1.75 -7.04 9.96 -3.51 7.62 -5.27 19.32 -0.59 -4.67 -0.58 -16.41 1.17 -7.03 5.27 -12.9 3.51 -6.43 5.28 -5.86 4.69 -4.1 12.3 -6.45 11.7 -2.92 26.96 -4.1 6.44 -2.34 5.27 -2.34zm16.41 -20.51l0 0 -0.59 0 -1.17 0 -0.59 1.17 -1.75 2.94 -9.97 10.54c-2.34,2.34 -5.85,4.7 -10.54,5.26 -16.41,1.77 -29.88,4.11 -38.66,7.04 -8.79,3.52 -15.23,5.85 -18.16,8.79 -3.51,2.33 -6.44,4.68 -7.62,7.02l-2.92 3.52 -5.86 11.13 -4.1 15.23 -0.59 9.96 1.76 16.98 2.34 7.62 0.59 1.16 0.59 0 0.59 0 1.16 -0.57 0 -0.59 0 -2.94c0,-1.76 0.6,-6.44 2.35,-14.05 1.47,-5.08 5.85,-15.81 5.85,-15.81 5.86,-10.55 11.73,-16.99 17.57,-19.91l4.7 -2.35c10.53,-5.28 22.24,-8.79 33.38,-11.14l-5.86 3.51c-9.94,5.28 -20.5,12.31 -31.63,20.51 -1.76,1.17 -4.1,4.1 -7.02,7.02 -2.93,3.52 -10.55,19.35 -11.14,24.02l-2.92 14.64c-1.17,6.45 -1.17,12.3 0,17.58 3.51,9.36 10.55,14.65 21.08,16.98 9.97,2.95 15.81,0 17.58,-7.03 -21.09,0.6 -32.81,-6.45 -35.15,-21.08l2.34 1.18 1.77 0.58 5.27 0.58 7.03 -0.58 9.36 -2.92 9.38 -4.11 10.53 -6.44c4.1,-2.35 7.63,-5.28 11.15,-9.38l12.88 -17.57 2.92 -5.85c3.52,-5.28 5.86,-12.3 7.03,-19.33l8.2 -52.14 0 -0.58 -0.58 -0.59 -0.58 0z"/>
    </g>
    <g>
     <path class="fil1" d="M1706.25 583.55l0 127.44 -34.95 0 0 -125.68c0,-18.35 -5.89,-33.88 -17.65,-46.6 -11.77,-12.7 -26.83,-19.06 -45.19,-19.06 -18.36,0 -33.41,6.3 -45.19,18.89 -11.76,12.59 -17.65,28.19 -17.65,46.77l0 125.68 -36.36 0 0 -279.24 36.36 0 0 81.19c11.77,-9.18 22,-15.53 30.72,-19.06 10.59,-4.71 22.35,-7.06 35.29,-7.06 26.37,0 48.73,9.48 67.09,28.42 18.35,18.95 27.53,41.71 27.53,68.31z"/>
     <path class="fil1" d="M1470.37 552.13c-20.01,-21.66 -42.25,-32.48 -66.72,-32.48 -21.9,0 -40.72,8 -56.5,24.01 -15.76,16 -23.65,35.07 -23.65,57.19 0,21.89 7.89,40.66 23.65,56.31 15.78,15.64 34.6,23.47 56.5,23.47 16.7,0 31.83,-4.47 45.36,-13.41 13.53,-8.94 23.12,-21.07 28.77,-36.36l24.01 22.94c-21.42,40.25 -52.49,60.37 -93.2,60.37 -33.65,0 -61.78,-10.35 -84.38,-31.07 -23.54,-21.41 -35.3,-48.83 -35.3,-82.25 0,-32.25 11.18,-59.31 33.54,-81.2 22.36,-21.89 49.89,-32.83 82.61,-32.83 40.24,0 71.31,15.42 93.19,46.25l-27.88 19.06z"/>
     <path class="fil1" d="M1232.07 519.65c-18.12,0 -33.12,6.3 -45.01,18.89 -11.88,12.59 -17.83,28.19 -17.83,46.77l0 125.68 -36.36 0 0 -220.99 36.36 0 0 22.94c11.77,-9.18 22.01,-15.53 30.72,-19.06 10.59,-4.71 22.36,-7.06 35.3,-7.06 29.89,0 54.37,11.77 73.43,35.3l-31.06 16.95c-12.01,-12.95 -27.19,-19.42 -45.55,-19.42z"/>
     <path class="fil1" d="M1082.8 710.99l0 -189.22 -49.07 0c-22.6,0 -41.78,7.53 -57.55,22.59 -15.77,15.07 -23.65,33.78 -23.65,56.13 0,22.37 7.77,41.02 23.3,55.96 15.53,14.94 34.48,22.42 56.83,22.42 13.42,0 25.77,-3.18 37.07,-9.53l0 35.65c-14.82,4.94 -27.77,7.42 -38.83,7.42 -31.77,0 -58.89,-10.77 -81.37,-32.31 -22.48,-21.53 -33.71,-48.07 -33.71,-79.61 0,-17.88 4.11,-34.95 12.35,-51.18 9.89,-18.84 23.77,-33.42 41.66,-43.78 17.88,-10.35 37.66,-15.53 59.31,-15.53l87.9 0 0 220.99 -34.24 0z"/>
     <path class="fil1" d="M857.57 583.55c-6.59,-42.6 -33.19,-63.9 -79.79,-63.9 -23.3,0 -43.36,7.88 -60.19,23.65 -16.83,15.78 -25.12,34.95 -24.89,57.55 0.24,22.12 8.18,40.95 23.83,56.48 15.65,15.53 34.54,23.3 56.66,23.3 18.83,0 36.72,-3.53 53.67,-10.59 19.76,-8.47 32.35,-19.89 37.77,-34.24l23.65 22.95c-9.65,18.12 -25.07,32 -46.25,41.65 -19.3,9.18 -40.71,13.77 -64.25,13.77 -32.94,0 -61.13,-10.89 -84.55,-32.66 -23.42,-21.77 -35.13,-48.65 -35.13,-80.66 0,-31.77 11.77,-58.72 35.31,-80.85 23.53,-22.12 51.66,-33.18 84.37,-33.18 35.3,0.23 62.96,8.24 82.96,24 23.77,18.6 35.66,47.43 35.66,86.5 0,4.7 -0.12,9.65 -0.35,14.82l-169.46 0 0 -28.24 130.62 0 0.36 -0.35z"/>
     <path class="fil1" d="M428.22 710.99l0 -36.71 150.74 0c8.71,0 16.24,-3 22.6,-9.01 6.35,-6 9.53,-13.35 9.53,-22.06 0,-8.71 -3.11,-16.06 -9.35,-22.06 -6.24,-6 -13.84,-9.01 -22.78,-9.01l-91.43 0c-23.77,0 -41.54,-10 -53.31,-30 -5.64,-9.65 -8.47,-20.01 -8.47,-31.07 0,-16.71 5.94,-31.07 17.83,-43.07 11.89,-12 26.29,-18 43.25,-18l153.56 0 0 36.01 -152.51 0c-7.29,0 -13.53,2.47 -18.71,7.41 -5.18,4.94 -7.77,10.94 -7.77,18.01 0,7.29 2.59,13.41 7.77,18.35 5.18,4.94 11.42,7.42 18.71,7.42l93.21 0c26.82,0 46.59,11.18 59.3,33.53 5.88,10.36 8.83,21.42 8.83,33.19 0,19.77 -6.77,35.89 -20.3,48.36 -13.54,12.48 -30.06,18.71 -49.6,18.71l-151.1 0z"/>
     <path class="fil1" d="M372.15 583.55c-6.59,-42.6 -33.18,-63.9 -79.79,-63.9 -23.3,0 -43.36,7.88 -60.19,23.65 -16.83,15.78 -25.12,34.95 -24.89,57.55 0.24,22.12 8.18,40.95 23.83,56.48 15.66,15.53 34.54,23.3 56.66,23.3 18.83,0 36.72,-3.53 53.67,-10.59 19.76,-8.47 32.35,-19.89 37.77,-34.24l23.65 22.95c-9.64,18.12 -25.06,32 -46.24,41.65 -19.3,9.18 -40.72,13.77 -64.26,13.77 -32.94,0 -61.13,-10.89 -84.55,-32.66 -23.41,-21.77 -35.13,-48.65 -35.13,-80.66 0,-31.77 11.77,-58.72 35.31,-80.85 23.54,-22.12 51.66,-33.18 84.37,-33.18 35.31,0.23 62.96,8.24 82.96,24 23.78,18.6 35.67,47.43 35.67,86.5 0,4.7 -0.12,9.65 -0.36,14.82l-169.45 0 0 -28.24 130.61 0 0.36 -0.35z"/>
     <path class="fil1" d="M99.2 519.65c-18.13,0 -33.13,6.3 -45.01,18.89 -11.89,12.59 -17.83,28.19 -17.83,46.77l0 125.68 -36.36 0 0 -220.99 36.36 0 0 22.94c11.77,-9.18 22.01,-15.53 30.71,-19.06 10.6,-4.71 22.36,-7.06 35.31,-7.06 29.89,0 54.36,11.77 73.42,35.3l-31.06 16.95c-12,-12.95 -27.19,-19.42 -45.54,-19.42z"/>
    </g>
   </g>
   <g>
    <path class="fil2 str0" d="M1765.32 84.89c20.26,0 36.68,16.42 36.68,36.67 0,20.26 -16.42,36.68 -36.68,36.68 -20.26,0 -36.68,-16.42 -36.68,-36.68 0,-20.25 16.42,-36.67 36.68,-36.67z"/>
   </g>
   <path class="fil3" d="M1750.33 141.53l0 -39.94 17.7 0c3.57,0 6.27,0.37 8.12,1.08 1.85,0.72 3.33,1.98 4.44,3.79 1.1,1.82 1.66,3.83 1.66,6.02 0,2.84 -0.93,5.23 -2.76,7.17 -1.83,1.94 -4.66,3.17 -8.49,3.7 1.41,0.67 2.47,1.34 3.19,1.99 1.55,1.41 3,3.19 4.37,5.32l6.91 10.87 -6.6 0 -5.29 -8.31c-1.53,-2.41 -2.8,-4.24 -3.8,-5.51 -1,-1.27 -1.89,-2.16 -2.68,-2.67 -0.78,-0.5 -1.59,-0.86 -2.41,-1.06 -0.59,-0.12 -1.57,-0.19 -2.94,-0.19l-6.12 0 0 17.74 -5.3 0zm5.3 -22.31l0 0 11.35 0c2.41,0 4.29,-0.25 5.65,-0.75 1.35,-0.49 2.39,-1.29 3.08,-2.4 0.71,-1.1 1.06,-2.29 1.06,-3.58 0,-1.89 -0.67,-3.45 -2.04,-4.67 -1.37,-1.22 -3.53,-1.82 -6.47,-1.82l-12.63 0 0 13.22z"/>
  </g>
 </g>
</svg>
